<svg width="57" height="75" viewBox="0 0 57 75" fill="none" xmlns="http://www.w3.org/2000/svg">
<path d="M45.1844 0L37.0431 19.7159H20.1326L27.649 0H45.1844Z" fill="#8E2323"/>
<path d="M37.8172 16.2974H19.5074C19.2215 16.297 18.9383 16.3523 18.674 16.4603C18.4097 16.5683 18.1696 16.7267 17.9674 16.9265C17.7653 17.1263 17.6049 17.3636 17.4957 17.6247C17.3864 17.8858 17.3304 18.1657 17.3308 18.4483V29.9711H39.9908V18.4483C39.9908 17.8783 39.7619 17.3317 39.3544 16.9284C38.9468 16.5251 38.3939 16.2981 37.8172 16.2974ZM38.3853 20.5194H18.5208V19.6331C18.5208 19.4051 18.5662 19.1793 18.6546 18.9687C18.743 18.7581 18.8726 18.5668 19.0359 18.4057C19.1992 18.2446 19.393 18.1169 19.6062 18.0299C19.8195 17.9429 20.0481 17.8984 20.2788 17.8987H36.6302C37.0957 17.8987 37.5421 18.0815 37.8712 18.4067C38.2004 18.732 38.3853 19.1731 38.3853 19.6331V20.5194Z" fill="#C95506"/>
<path d="M12.2605 0L20.1328 19.7159H37.0433L29.3474 0H12.2605Z" fill="#FA352C"/>
<path d="M23.8788 19.7159L15.4056 0H14.4309L22.9041 19.7159H23.8788Z" fill="#7F0B0B"/>
<path d="M26.985 19.7159L18.5118 0H17.5371L26.0103 19.7159H26.985Z" fill="#7F0B0B"/>
<path d="M30.528 19.7159L22.0548 0H21.0801L29.5533 19.7159H30.528Z" fill="#7F0B0B"/>
<path d="M33.9367 19.7159L25.4634 0H24.4888L32.962 19.7159H33.9367Z" fill="#7F0B0B"/>
<path d="M52.4828 51.0342C54.6713 37.7982 45.5837 25.3374 32.1852 23.2022C18.7867 21.0671 6.15103 30.066 3.96256 43.302C1.7741 56.538 10.8616 68.9988 24.2601 71.1339C37.6586 73.2691 50.2943 64.2701 52.4828 51.0342Z" fill="#FFB839"/>
<path d="M45.1756 29.6401C49.6289 34.2243 52.0863 40.3508 52.0207 46.705C51.9551 53.0593 49.3716 59.135 44.8246 63.6283C40.2776 68.1217 34.1294 70.6747 27.6993 70.7396C21.2692 70.8044 15.0695 68.3759 10.4307 63.9752C12.6947 66.3058 15.4066 68.1665 18.4075 69.4484C21.4084 70.7303 24.6379 71.4075 27.907 71.4405C31.1761 71.4735 34.4189 70.8615 37.4457 69.6404C40.4724 68.4193 43.2222 66.6137 45.5339 64.3293C47.8456 62.0448 49.6728 59.3275 50.9084 56.3365C52.1441 53.3454 52.7634 50.1408 52.73 46.9103C52.6966 43.6798 52.0113 40.4883 50.7141 37.5228C49.4169 34.5574 47.534 31.8775 45.1756 29.6401Z" fill="#EA7603"/>
<path d="M47.9768 50.3612C49.7504 39.5649 42.3316 29.3922 31.4062 27.6399C20.4809 25.8877 10.1863 33.2193 8.41268 44.0157C6.63901 54.8121 14.0579 64.9848 24.9832 66.737C35.9086 68.4893 46.2031 61.1576 47.9768 50.3612Z" fill="#FF9B50"/>
<g style="mix-blend-mode:screen" opacity="0.69">
<g style="mix-blend-mode:screen" opacity="0.69">
<path d="M26.2141 61.1832C26.7088 61.6073 27.0553 62.175 27.2039 62.8052C26.542 62.8005 25.8978 62.5941 25.3589 62.2143C24.8639 61.7917 24.5174 61.2248 24.3691 60.5952C25.0308 60.5986 25.6752 60.8039 26.2141 61.1832Z" fill="#FFB448"/>
</g>
<g style="mix-blend-mode:screen" opacity="0.69">
<path d="M25.2661 62.7669C25.9006 62.582 26.5774 62.5955 27.2038 62.8053C26.8468 63.3551 26.3237 63.78 25.7087 64.0196C25.0742 64.2045 24.3974 64.1911 23.771 63.9812C24.128 63.4314 24.6511 63.0065 25.2661 62.7669Z" fill="#FFB448"/>
</g>
<g style="mix-blend-mode:screen" opacity="0.69">
<path d="M23.1555 60.3651C23.5854 60.8526 23.8491 61.4615 23.909 62.1053C23.2545 62.0143 22.6445 61.7253 22.1627 61.2781C21.7331 60.7916 21.4694 60.1837 21.4092 59.5408C22.0632 59.6316 22.673 59.9194 23.1555 60.3651Z" fill="#FFB448"/>
</g>
<g style="mix-blend-mode:screen" opacity="0.69">
<path d="M21.9923 61.8065C22.6468 61.7076 23.3162 61.8108 23.9091 62.102C23.4792 62.5962 22.9045 62.9462 22.2644 63.1036C21.61 63.2025 20.9405 63.0993 20.3477 62.8081C20.7775 62.3139 21.3523 61.9639 21.9923 61.8065Z" fill="#FFB448"/>
</g>
<g style="mix-blend-mode:screen" opacity="0.69">
<path d="M20.7486 59.1888C21.0943 59.7359 21.2556 60.3773 21.2091 61.0207C20.5786 60.8311 20.0236 60.4521 19.6213 59.9363C19.2752 59.3894 19.1139 58.7479 19.1608 58.1045C19.7913 58.294 20.3463 58.6731 20.7486 59.1888Z" fill="#FFB448"/>
</g>
<g style="mix-blend-mode:screen" opacity="0.69">
<path d="M19.361 60.4329C20.0231 60.4367 20.6676 60.6431 21.206 61.0238C20.7162 61.4728 20.0797 61.7334 19.412 61.7584C18.7443 61.7833 18.0896 61.5709 17.5669 61.1597C18.0743 60.7395 18.7012 60.4855 19.361 60.4329Z" fill="#FFB448"/>
</g>
<g style="mix-blend-mode:screen" opacity="0.69">
<path d="M18.5001 57.3985C18.7024 58.0109 18.7024 58.6711 18.5001 59.2835C17.9367 58.9506 17.4933 58.4515 17.2322 57.8565C17.029 57.2441 17.029 56.5837 17.2322 55.9714C17.7949 56.3051 18.2381 56.804 18.5001 57.3985Z" fill="#FFB448"/>
</g>
<g style="mix-blend-mode:screen" opacity="0.69">
<path d="M16.8474 58.2789C17.4873 58.4364 18.0613 58.7876 18.4891 59.2835C17.9078 59.6051 17.2292 59.7101 16.5762 59.5794C15.9233 59.4488 15.3395 59.0911 14.9307 58.5714C15.5239 58.2812 16.1933 58.1791 16.8474 58.2789Z" fill="#FFB448"/>
</g>
<g style="mix-blend-mode:screen" opacity="0.69">
<path d="M16.7995 55.3213C16.8439 55.9653 16.6806 56.6066 16.333 57.1531C15.8397 56.7207 15.5242 56.1244 15.4465 55.4773C15.3688 54.8303 15.5342 54.1776 15.9114 53.6431C16.3783 54.0965 16.689 54.6836 16.7995 55.3213Z" fill="#FFB448"/>
</g>
<g style="mix-blend-mode:screen" opacity="0.69">
<path d="M14.9816 55.8003C15.5638 56.1011 16.0364 56.5742 16.3332 57.1535C15.6886 57.3 15.014 57.2464 14.4015 56.9998C13.8173 56.7005 13.3434 56.227 13.0469 55.6466C13.6924 55.5002 14.368 55.5539 14.9816 55.8003Z" fill="#FFB448"/>
</g>
<g style="mix-blend-mode:screen" opacity="0.69">
<path d="M15.3492 52.7069C15.2605 53.3474 14.9696 53.944 14.5179 54.4117C14.1233 53.8906 13.9358 53.2447 13.9909 52.5961C14.046 51.9476 14.3399 51.3416 14.8169 50.8928C15.1844 51.4265 15.3708 52.0618 15.3492 52.7069Z" fill="#FFB448"/>
</g>
<g style="mix-blend-mode:screen" opacity="0.69">
<path d="M13.4691 52.8248C13.9792 53.2315 14.3464 53.7867 14.5187 54.4114C13.8569 54.4323 13.2049 54.2495 12.6528 53.8885C12.1442 53.4811 11.7781 52.9261 11.6062 52.3019C12.2668 52.283 12.9172 52.4656 13.4691 52.8248Z" fill="#FFB448"/>
</g>
<g style="mix-blend-mode:screen" opacity="0.69">
<path d="M14.5986 50.2282C14.408 50.8477 14.0239 51.3917 13.5012 51.7823C13.2269 51.1973 13.1474 50.5415 13.274 49.9091C13.4674 49.2902 13.8522 48.7467 14.3744 48.355C14.6482 48.9401 14.7268 49.5961 14.5986 50.2282Z" fill="#FFB448"/>
</g>
<g style="mix-blend-mode:screen" opacity="0.69">
<path d="M12.724 50.0417C13.1614 50.5223 13.4335 51.1273 13.5015 51.7701C12.8469 51.6882 12.2339 51.4086 11.7462 50.9694C11.3085 50.4879 11.0363 49.8818 10.9688 49.238C11.6234 49.3217 12.2362 49.6022 12.724 50.0417Z" fill="#FFB448"/>
</g>
<g style="mix-blend-mode:screen" opacity="0.69">
<path d="M14.5181 47.4391C14.1774 47.9952 13.6693 48.4322 13.0649 48.6889C12.945 48.0552 13.0319 47.4003 13.313 46.8186C13.6537 46.2625 14.1618 45.8255 14.7663 45.5688C14.8861 46.2025 14.7992 46.8574 14.5181 47.4391Z" fill="#FFB448"/>
</g>
<g style="mix-blend-mode:screen" opacity="0.69">
<path d="M12.742 46.8298C13.0472 47.3995 13.1604 48.0506 13.0649 48.6882C12.4545 48.4572 11.9319 48.0441 11.5698 47.5064C11.2645 46.9357 11.1514 46.2836 11.2468 45.645C11.8572 45.8777 12.3796 46.2916 12.742 46.8298Z" fill="#FFB448"/>
</g>
<g style="mix-blend-mode:screen" opacity="0.69">
<path d="M15.0204 44.638C14.5548 45.1017 13.9551 45.4114 13.304 45.5243C13.3392 44.8757 13.5821 44.2549 13.9977 43.7516C14.4635 43.2882 15.0631 42.9786 15.7141 42.8652C15.6781 43.5137 15.4352 44.1343 15.0204 44.638Z" fill="#FFB448"/>
</g>
<g style="mix-blend-mode:screen" opacity="0.69">
<path d="M13.4417 43.6362C13.6001 44.262 13.5519 44.9214 13.3042 45.5183C12.7636 45.1507 12.3536 44.6247 12.132 44.0144C11.9757 43.3884 12.0239 42.7296 12.2696 42.1323C12.8093 42.5007 13.2191 43.0265 13.4417 43.6362Z" fill="#FFB448"/>
</g>
<g style="mix-blend-mode:screen" opacity="0.69">
<path d="M16.046 42.333C15.4853 42.6783 14.8309 42.8454 14.1711 42.8117C14.3581 42.1911 14.7379 41.6443 15.2566 41.2487C15.8177 40.9018 16.4736 40.7346 17.1345 40.7701C16.947 41.3912 16.5662 41.9381 16.046 42.333Z" fill="#FFB448"/>
</g>
<g style="mix-blend-mode:screen" opacity="0.69">
<path d="M14.7455 41.0094C14.7501 41.6548 14.5492 42.2852 14.1714 42.8117C13.7044 42.3518 13.4245 41.7386 13.3848 41.0883C13.3451 40.438 13.5484 39.7959 13.9561 39.2839C14.3965 39.7626 14.6728 40.3665 14.7455 41.0094Z" fill="#FFB448"/>
</g>
<g style="mix-blend-mode:screen" opacity="0.69">
<path d="M17.3319 40.2474C16.7225 40.5038 16.0478 40.5678 15.4001 40.4306C15.6864 39.8467 16.1508 39.3662 16.7278 39.0567C17.3372 38.8003 18.0119 38.7363 18.6595 38.8735C18.3733 39.4574 17.9089 39.9379 17.3319 40.2474Z" fill="#FFB448"/>
</g>
<g style="mix-blend-mode:screen" opacity="0.69">
<path d="M16.2614 38.7406C16.1616 39.3794 15.8602 39.9709 15.4002 40.4306C15.0429 39.8904 14.8681 39.2522 14.9009 38.6076C15.0078 37.9728 15.3131 37.387 15.774 36.9324C16.1235 37.4701 16.294 38.1023 16.2614 38.7406Z" fill="#FFB448"/>
</g>
<g style="mix-blend-mode:screen" opacity="0.69">
<path d="M31.6524 61.0533C31.1568 61.4771 30.8093 62.0448 30.6597 62.6754C31.3215 62.6706 31.9658 62.4643 32.5047 62.0845C33.0003 61.6607 33.3478 61.093 33.4974 60.4624C32.8356 60.4672 32.1913 60.6735 31.6524 61.0533Z" fill="#FFB448"/>
</g>
<g style="mix-blend-mode:screen" opacity="0.69">
<path d="M32.6004 62.6376C31.9649 62.4529 31.2872 62.4663 30.6597 62.676C31.0173 63.2246 31.5403 63.6484 32.1548 63.8874C32.7901 64.0723 33.4675 64.0599 34.0955 63.852C33.7376 63.3029 33.2148 62.8783 32.6004 62.6376Z" fill="#FFB448"/>
</g>
<g style="mix-blend-mode:screen" opacity="0.69">
<path d="M34.3104 60.3651C33.8805 60.8526 33.6169 61.4615 33.5569 62.1053C34.2114 62.0143 34.8215 61.7253 35.3032 61.2781C35.7329 60.7916 35.9965 60.1837 36.0568 59.5408C35.4027 59.6316 34.7929 59.9194 34.3104 60.3651Z" fill="#FFB448"/>
</g>
<g style="mix-blend-mode:screen" opacity="0.69">
<path d="M35.4856 61.8065C34.8311 61.7076 34.1617 61.8108 33.5688 62.102C33.9987 62.5962 34.5735 62.9462 35.2135 63.1036C35.868 63.2025 36.5374 63.0993 37.1302 62.8081C36.7003 62.3139 36.1256 61.9639 35.4856 61.8065Z" fill="#FFB448"/>
</g>
<g style="mix-blend-mode:screen" opacity="0.69">
<path d="M36.7263 59.0914C36.3802 59.6384 36.2189 60.2798 36.2658 60.9232C36.8963 60.7337 37.4513 60.3547 37.8536 59.8389C38.1993 59.2918 38.3606 58.6504 38.3141 58.0071C37.6836 58.1966 37.1286 58.5757 36.7263 59.0914Z" fill="#FFB448"/>
</g>
<g style="mix-blend-mode:screen" opacity="0.69">
<path d="M38.1076 60.3359C37.4466 60.3402 36.8031 60.5466 36.2656 60.9269C36.7715 61.3513 37.3986 61.6094 38.0598 61.6655C38.7215 61.66 39.3656 61.4537 39.9048 61.0746C39.3974 60.6508 38.7695 60.3927 38.1076 60.3359Z" fill="#FFB448"/>
</g>
<g style="mix-blend-mode:screen" opacity="0.69">
<path d="M38.8969 57.3453C38.6945 57.9587 38.6945 58.6198 38.8969 59.2332C39.4594 58.8994 39.9026 58.4006 40.1648 57.8062C40.3682 57.1929 40.3682 56.5315 40.1648 55.9182C39.6021 56.2519 39.1588 56.7508 38.8969 57.3453Z" fill="#FFB448"/>
</g>
<g style="mix-blend-mode:screen" opacity="0.69">
<path d="M40.5503 58.2262C39.9105 58.3853 39.3367 58.7375 38.9087 59.2337C39.4904 59.5535 40.1685 59.6574 40.821 59.5269C41.4734 59.3963 42.0572 59.0398 42.4671 58.5216C41.8739 58.2314 41.2048 58.1282 40.5503 58.2262Z" fill="#FFB448"/>
</g>
<g style="mix-blend-mode:screen" opacity="0.69">
<path d="M40.6906 55.1323C40.6466 55.7753 40.8099 56.4156 41.1571 56.9612C41.6496 56.5289 41.9646 55.9332 42.0423 55.2868C42.12 54.6404 41.9551 53.9884 41.5787 53.4541C41.1118 53.9075 40.8011 54.4947 40.6906 55.1323Z" fill="#FFB448"/>
</g>
<g style="mix-blend-mode:screen" opacity="0.69">
<path d="M42.5088 55.6079C41.9265 55.9087 41.454 56.3819 41.1572 56.9611C41.8024 57.1094 42.4782 57.0568 43.0919 56.8104C43.6742 56.5096 44.1468 56.0365 44.4435 55.4572C43.7982 55.3107 43.1229 55.3633 42.5088 55.6079Z" fill="#FFB448"/>
</g>
<g style="mix-blend-mode:screen" opacity="0.69">
<path d="M41.9761 52.6596C42.0647 53.3001 42.3556 53.8966 42.8073 54.3644C43.2019 53.8433 43.3895 53.1973 43.3344 52.5488C43.2792 51.9003 42.9853 51.2942 42.5083 50.8455C42.1408 51.3792 41.9545 52.0144 41.9761 52.6596Z" fill="#FFB448"/>
</g>
<g style="mix-blend-mode:screen" opacity="0.69">
<path d="M43.857 52.7775C43.3469 53.1841 42.9797 53.7393 42.8074 54.3641C43.4689 54.3828 44.1202 54.2002 44.6733 53.8411C45.1819 53.4338 45.548 52.8787 45.7199 52.2545C45.0591 52.2339 44.4081 52.4166 43.857 52.7775Z" fill="#FFB448"/>
</g>
<g style="mix-blend-mode:screen" opacity="0.69">
<path d="M42.7269 50.1627C42.9179 50.7829 43.3019 51.3277 43.8243 51.7198C44.0984 51.1338 44.178 50.4771 44.0516 49.8437C43.8582 49.2247 43.4733 48.6812 42.9512 48.2896C42.6773 48.8747 42.5988 49.5306 42.7269 50.1627Z" fill="#FFB448"/>
</g>
<g style="mix-blend-mode:screen" opacity="0.69">
<path d="M44.6014 49.9882C44.1637 50.4697 43.8915 51.0758 43.824 51.7196C44.4787 51.6359 45.0914 51.3554 45.5793 50.9159C46.0166 50.4353 46.2887 49.8303 46.3567 49.1875C45.7021 49.2694 45.0891 49.549 44.6014 49.9882Z" fill="#FFB448"/>
</g>
<g style="mix-blend-mode:screen" opacity="0.69">
<path d="M42.7924 47.4799C43.1341 48.0351 43.6419 48.4718 44.2457 48.7297C44.3673 48.0954 44.2814 47.4393 44.0004 46.8565C43.6587 46.3012 43.1509 45.8645 42.5472 45.6067C42.4256 46.241 42.5115 46.897 42.7924 47.4799Z" fill="#FFB448"/>
</g>
<g style="mix-blend-mode:screen" opacity="0.69">
<path d="M44.5686 46.8686C44.265 47.4399 44.152 48.0914 44.2456 48.73C44.8549 48.4969 45.3769 48.0843 45.7407 47.5481C46.0443 46.9768 46.1573 46.3254 46.0637 45.6868C45.4537 45.9187 44.9314 46.3315 44.5686 46.8686Z" fill="#FFB448"/>
</g>
<g style="mix-blend-mode:screen" opacity="0.69">
<path d="M42.2694 44.6734C42.7334 45.1377 43.3323 45.4475 43.9828 45.5597C43.9495 44.9112 43.7075 44.2902 43.2921 43.787C42.8268 43.3228 42.227 43.0131 41.5757 42.9006C41.6092 43.5496 41.8524 44.1709 42.2694 44.6734Z" fill="#FFB448"/>
</g>
<g style="mix-blend-mode:screen" opacity="0.69">
<path d="M43.8479 43.6743C43.6894 44.2999 43.7365 44.959 43.9824 45.5564C44.5239 45.1897 44.9341 44.6633 45.1546 44.0525C45.3129 43.4269 45.2658 42.7678 45.0201 42.1704C44.4795 42.5379 44.0695 43.064 43.8479 43.6743Z" fill="#FFB448"/>
</g>
<g style="mix-blend-mode:screen" opacity="0.69">
<path d="M41.2708 42.4102C41.8319 42.7571 42.4878 42.9243 43.1487 42.8888C42.9613 42.2677 42.5804 41.7208 42.0602 41.3258C41.4992 40.9789 40.8433 40.8117 40.1824 40.8472C40.3698 41.4683 40.7507 42.0152 41.2708 42.4102Z" fill="#FFB448"/>
</g>
<g style="mix-blend-mode:screen" opacity="0.69">
<path d="M42.5743 41.0863C42.5684 41.7319 42.7693 42.3628 43.1485 42.8886C43.6142 42.4285 43.8931 41.8156 43.9322 41.166C43.9714 40.5164 43.768 39.8752 43.3608 39.3638C42.9215 39.8417 42.6463 40.4446 42.5743 41.0863Z" fill="#FFB448"/>
</g>
<g style="mix-blend-mode:screen" opacity="0.69">
<path d="M39.9132 40.3388C40.5215 40.5952 41.1949 40.6602 41.8419 40.5249C41.5561 39.9399 41.0918 39.4584 40.5142 39.1481C39.9044 38.8933 39.2302 38.8294 38.5825 38.9649C38.8696 39.5492 39.335 40.0297 39.9132 40.3388Z" fill="#FFB448"/>
</g>
<g style="mix-blend-mode:screen" opacity="0.69">
<path d="M40.9837 38.8322C41.0821 39.4718 41.3824 40.0643 41.8419 40.5252C42.2279 39.9971 42.4044 39.3474 42.3377 38.6993C42.271 38.0512 41.9658 37.4498 41.4801 37.0093C41.1234 37.5497 40.9496 38.188 40.9837 38.8322Z" fill="#FFB448"/>
</g>
<g style="mix-blend-mode:screen" opacity="0.69">
<path d="M39.187 37.3638C39.1435 37.4087 39.0966 37.4502 39.0465 37.4879L38.9986 37.5174C40.5923 38.8294 41.8769 40.4694 42.7625 42.3229C43.6482 44.1764 44.1136 46.1987 44.1262 48.2484C44.1262 56.2258 37.1808 62.6992 28.6418 62.6992C20.1028 62.6992 13.1574 56.2169 13.1574 48.2484C13.1672 46.2909 13.5912 44.357 14.4022 42.571C15.2132 40.7851 16.3932 39.1864 17.8664 37.8779C17.781 37.8526 17.698 37.82 17.6183 37.7804C16.1418 39.1075 14.9603 40.7233 14.1487 42.5252C13.3371 44.3272 12.913 46.2761 12.9033 48.2484C12.9093 56.3439 19.9593 62.9326 28.6299 62.9326C37.3004 62.9326 44.3624 56.3439 44.3624 48.2484C44.3514 46.1716 43.8827 44.122 42.9889 42.2423C42.0951 40.3626 40.7978 38.6978 39.187 37.3638Z" fill="#FFB448"/>
</g>
<g style="mix-blend-mode:screen" opacity="0.69">
<path d="M19.4151 38.4102C18.7615 38.516 18.0908 38.419 17.4954 38.1325C17.8996 37.6101 18.4799 37.2481 19.131 37.112C19.7822 36.976 20.4611 37.0749 21.0448 37.3909C20.6226 37.8905 20.0527 38.2469 19.4151 38.4102Z" fill="#FFB448"/>
</g>
<g style="mix-blend-mode:screen" opacity="0.69">
<path d="M18.7633 36.6902C18.508 37.2875 18.0685 37.79 17.5074 38.1261C17.2954 37.5168 17.2849 36.8567 17.4775 36.2411C17.735 35.6435 18.1752 35.1404 18.7364 34.8022C18.9465 35.413 18.9559 36.0738 18.7633 36.6902Z" fill="#FFB448"/>
</g>
<g style="mix-blend-mode:screen" opacity="0.69">
<path d="M37.9344 38.4102C38.588 38.516 39.2587 38.419 39.8541 38.1325C39.4499 37.6101 38.8696 37.2481 38.2185 37.112C37.5673 36.976 36.8884 37.0749 36.3047 37.3909C36.7269 37.8905 37.2968 38.2469 37.9344 38.4102Z" fill="#FFB448"/>
</g>
<g style="mix-blend-mode:screen" opacity="0.69">
<path d="M38.5978 36.6902C38.8542 37.2868 39.2934 37.789 39.8537 38.1261C40.0658 37.5168 40.0763 36.8567 39.8836 36.2411C39.6261 35.6435 39.186 35.1404 38.6247 34.8022C38.4146 35.413 38.4052 36.0738 38.5978 36.6902Z" fill="#FFB448"/>
</g>
</g>
<path d="M31.2369 44.951C33.1982 45.4681 34.4151 46.7001 34.4151 48.7299C34.4151 53.5783 27.5384 54.2815 22.9102 53.014L23.1463 49.6251C24.9403 50.5381 27.8613 50.8897 29.3622 49.9206C29.616 49.7779 29.8302 49.5755 29.9859 49.3315C30.1417 49.0875 30.2341 48.8093 30.2551 48.5215C30.2761 48.2337 30.225 47.9453 30.1063 47.6817C29.9876 47.4181 29.8049 47.1875 29.5745 47.0103C28.5908 46.3249 27.069 46.6026 25.6399 46.5376V43.6687H27.4547C31.0156 43.6687 31.0993 39.9814 27.365 39.9814C26.085 39.9952 24.8183 40.2405 23.6277 40.7053L23.4364 37.6739C24.2187 37.4357 25.0183 37.2569 25.8282 37.1391C34.6662 35.8302 35.0041 41.6507 33.4045 43.6155C32.8387 44.2711 32.0815 44.7375 31.2369 44.951Z" fill="#FFB839"/>
</svg>
