<svg width="55" height="75" viewBox="0 0 55 75" fill="none" xmlns="http://www.w3.org/2000/svg">
<path d="M44.242 0L36.1582 19.8682H19.3672L26.8305 0H44.242Z" fill="#892020"/>
<path d="M36.9273 16.4234H18.747C18.1735 16.4234 17.6235 16.6517 17.2177 17.0581C16.8119 17.4645 16.5836 18.0158 16.5828 18.591V30.2028H39.0915V18.591C39.0907 18.0158 38.8624 17.4645 38.4566 17.0581C38.0508 16.6517 37.5008 16.4234 36.9273 16.4234ZM37.4914 20.6781H17.7702V19.7849C17.7702 19.3214 17.9538 18.8768 18.2807 18.5491C18.6075 18.2213 19.0507 18.0372 19.5129 18.0372H35.7488C36.2109 18.0372 36.6542 18.2213 36.981 18.5491C37.3078 18.8768 37.4914 19.3214 37.4914 19.7849V20.6781Z" fill="#6B7384"/>
<path d="M11.5508 0L19.3674 19.8682H36.1584L28.517 0H11.5508Z" fill="#FA352C"/>
<path d="M22.4603 19.8682L14.4834 0H13.2009L21.1808 19.8682H22.4603Z" fill="#FF740D"/>
<path d="M26.3764 19.8682L18.3965 0H17.1169L25.0968 19.8682H26.3764Z" fill="#FF740D"/>
<path d="M30.1466 19.8682L22.1697 0H20.8872L28.8671 19.8682H30.1466Z" fill="#FF740D"/>
<path d="M34.202 19.8682L26.2221 0H24.9426L32.9225 19.8682H34.202Z" fill="#FF740D"/>
<path d="M51.5577 50.7364C53.3096 37.336 43.8984 25.0484 30.5371 23.2914C17.1758 21.5343 4.92408 30.9731 3.17215 44.3735C1.42022 57.774 10.8315 70.0615 24.1928 71.8186C37.5541 73.5756 49.8057 64.1368 51.5577 50.7364Z" fill="#798093"/>
<path d="M27.362 23.078C27.1206 23.078 26.8801 23.078 26.6406 23.078C32.9778 23.2763 38.9891 25.9405 43.4019 30.5065C47.8146 35.0724 50.2822 41.1816 50.2822 47.5403C50.2822 53.8991 47.8146 60.0083 43.4019 64.5742C38.9891 69.1402 32.9778 71.8044 26.6406 72.0027H27.362C33.8333 72.0027 40.0395 69.4245 44.6153 64.8352C49.1912 60.246 51.7619 54.0216 51.7619 47.5314C51.7619 41.0412 49.1912 34.8169 44.6153 30.2276C40.0395 25.6383 33.8333 23.0601 27.362 23.0601V23.078Z" fill="#6B7384"/>
<path d="M47.0954 50.1497C48.5242 39.221 40.8489 29.1999 29.9521 27.7669C19.0553 26.334 9.06344 34.0318 7.63465 44.9605C6.20587 55.8892 13.8812 65.9103 24.778 67.3433C35.6748 68.7762 45.6666 61.0784 47.0954 50.1497Z" fill="#9EA8BA"/>
<path d="M26.7387 51.0356H32.8275V54.0547H21.8997V50.9433C23.8115 49.2968 28.5674 45.316 28.5674 42.8239C28.5674 41.5615 27.7421 40.6981 26.3735 40.6981C25.0049 40.6981 23.6185 41.2459 22.4043 41.8682L22.2975 38.5394C30.5475 35.2643 35.0985 40.4956 31.2036 46.2599C30.2635 47.6573 28.7752 49.2492 26.7387 51.0356Z" fill="#CAD5E5"/>
<path d="M24.9306 61.424C25.4223 61.8501 25.7672 62.4212 25.9162 63.0556C25.2588 63.0523 24.6187 62.8442 24.0845 62.4601C23.5928 62.0339 23.2478 61.4629 23.0989 60.8285C23.7562 60.8317 24.3963 61.0398 24.9306 61.424Z" fill="#BAC6D8"/>
<path d="M23.9892 63.0167C24.6204 62.8323 25.2927 62.8458 25.9159 63.0554C25.5606 63.6087 25.0416 64.0366 24.4316 64.2791C23.8007 64.4652 23.1279 64.4517 22.5049 64.2404C22.8602 63.6871 23.3792 63.2592 23.9892 63.0167Z" fill="#BAC6D8"/>
<path d="M21.8936 60.596C22.3218 61.0863 22.5837 61.7004 22.6417 62.3496C21.9927 62.258 21.388 61.9668 20.911 61.516C20.483 61.0266 20.221 60.4136 20.1628 59.7653C20.8112 59.8572 21.4155 60.1472 21.8936 60.596Z" fill="#BAC6D8"/>
<path d="M20.7387 62.0493C21.3885 61.9496 22.053 62.0536 22.6417 62.347C22.2156 62.8446 21.6462 63.1972 21.0118 63.3564C20.3621 63.4555 19.6977 63.3515 19.1089 63.0586C19.5346 62.5608 20.1042 62.2081 20.7387 62.0493Z" fill="#BAC6D8"/>
<path d="M19.504 59.4113C19.8472 59.9627 20.0073 60.609 19.9611 61.2573C19.3412 61.064 18.7958 60.6834 18.3996 60.1676C18.0561 59.6152 17.8961 58.9679 17.9424 58.3186C18.5623 58.5136 19.1075 58.8951 19.504 59.4113Z" fill="#BAC6D8"/>
<path d="M18.1323 60.6646C18.7886 60.6689 19.4274 60.8769 19.961 61.2601C19.4588 61.6878 18.8362 61.948 18.1798 62.0044C17.5235 62.0002 16.8847 61.7922 16.3511 61.409C16.8533 60.9813 17.4759 60.7211 18.1323 60.6646Z" fill="#BAC6D8"/>
<path d="M17.271 57.6071C17.471 58.2244 17.471 58.8894 17.271 59.5067C16.7058 59.171 16.261 58.6645 16.0004 58.0597C15.8003 57.4424 15.8003 56.7774 16.0004 56.1601C16.5656 56.4958 17.0104 57.0023 17.271 57.6071Z" fill="#BAC6D8"/>
<path d="M15.6327 58.4942C16.2676 58.6538 16.8372 59.0076 17.2625 59.5065C16.6736 59.799 16.0093 59.9029 15.3596 59.8043C14.7243 59.6439 14.1546 59.289 13.7297 58.789C14.3185 58.4962 14.9832 58.3932 15.6327 58.4942Z" fill="#BAC6D8"/>
<path d="M15.5822 55.5138C15.6282 56.1625 15.467 56.8091 15.122 57.3598C14.6318 56.9244 14.318 56.3237 14.2403 55.6716C14.1626 55.0196 14.3264 54.3616 14.7004 53.8226C15.1641 54.2796 15.4725 54.8712 15.5822 55.5138Z" fill="#BAC6D8"/>
<path d="M13.7773 55.996C14.361 56.2965 14.8357 56.7736 15.134 57.3597C14.4931 57.5072 13.8224 57.4531 13.2132 57.2048C12.6326 56.9042 12.1618 56.4268 11.8684 55.8412C12.5055 55.6954 13.1718 55.7494 13.7773 55.996Z" fill="#BAC6D8"/>
<path d="M14.1421 52.8787C14.054 53.5241 13.7652 54.1253 13.3168 54.5966C12.925 54.0715 12.7388 53.4206 12.7936 52.767C12.8483 52.1135 13.14 51.5028 13.6136 51.0505C13.9785 51.5884 14.1635 52.2285 14.1421 52.8787Z" fill="#BAC6D8"/>
<path d="M12.278 52.9977C12.784 53.4073 13.1478 53.967 13.3171 54.5966C12.661 54.6174 12.0147 54.4332 11.4676 54.0696C10.9612 53.6598 10.5966 53.1003 10.4255 52.4707C11.0823 52.4515 11.7291 52.6355 12.278 52.9977Z" fill="#BAC6D8"/>
<path d="M13.4 50.3688C13.2092 50.9931 12.8282 51.5418 12.3105 51.9379C12.0366 51.3478 11.9576 50.6855 12.0849 50.0473C12.2752 49.4235 12.6564 48.8756 13.1744 48.4811C13.4465 49.0707 13.5255 49.7315 13.4 50.3688Z" fill="#BAC6D8"/>
<path d="M11.5389 50.1929C11.9734 50.6781 12.2436 51.2889 12.3107 51.9376C11.6598 51.8536 11.0504 51.5708 10.5651 51.1278C10.13 50.6426 9.8588 50.0319 9.79028 49.383C10.4423 49.4661 11.053 49.7489 11.5389 50.1929Z" fill="#BAC6D8"/>
<path d="M13.32 47.5702C12.9795 48.1321 12.4717 48.5726 11.8683 48.8297C11.7476 48.1915 11.8329 47.5313 12.1118 46.945C12.45 46.3846 12.9544 45.9442 13.5545 45.6855C13.6782 46.3228 13.5961 46.983 13.32 47.5702Z" fill="#BAC6D8"/>
<path d="M11.5713 46.9566C11.8645 47.534 11.9684 48.1894 11.8682 48.8294C11.2627 48.5957 10.7441 48.1797 10.3839 47.6385C10.0826 47.0638 9.97034 46.4082 10.0632 45.7657C10.6775 45.9951 11.2049 46.4116 11.5713 46.9566Z" fill="#BAC6D8"/>
<path d="M13.8158 44.7472C13.3549 45.2148 12.7604 45.5269 12.1147 45.6404C12.1478 44.9869 12.3881 44.361 12.8005 43.854C13.2634 43.3875 13.8584 43.0755 14.5046 42.9608C14.4704 43.6146 14.2291 44.2404 13.8158 44.7472Z" fill="#BAC6D8"/>
<path d="M12.2484 43.738C12.4057 44.3684 12.359 45.0327 12.1148 45.6346C11.5773 45.2652 11.17 44.7347 10.9511 44.1191C10.7939 43.4887 10.8407 42.8245 11.0847 42.2225C11.6213 42.5929 12.0284 43.123 12.2484 43.738Z" fill="#BAC6D8"/>
<path d="M14.837 42.4247C14.28 42.7743 13.6288 42.9428 12.9727 42.9071C13.1587 42.2811 13.5369 41.73 14.0533 41.332C14.6092 40.9824 15.2594 40.814 15.9146 40.8497C15.729 41.475 15.352 42.026 14.837 42.4247Z" fill="#BAC6D8"/>
<path d="M13.5424 41.0881C13.5491 41.7388 13.3495 42.3748 12.9724 42.9043C12.5103 42.4412 12.2335 41.8244 12.1941 41.1704C12.1547 40.5165 12.3555 39.8707 12.7586 39.3552C13.1956 39.8355 13.4699 40.442 13.5424 41.0881Z" fill="#BAC6D8"/>
<path d="M16.1104 40.323C15.5055 40.5814 14.8359 40.6469 14.1926 40.5106C14.4779 39.9212 14.9399 39.4361 15.5137 39.1231C16.1177 38.8647 16.7866 38.8002 17.4285 38.9385C17.1443 39.5269 16.6833 40.0111 16.1104 40.323Z" fill="#BAC6D8"/>
<path d="M15.0478 38.8046C14.9497 39.4497 14.6503 40.0469 14.1928 40.5107C13.8081 39.9799 13.6309 39.326 13.695 38.6729C13.759 38.0199 14.0597 37.4131 14.5401 36.9676C14.8985 37.5108 15.0762 38.1539 15.0478 38.8046Z" fill="#BAC6D8"/>
<path d="M30.3305 61.29C29.8388 61.7168 29.4947 62.2892 29.3479 62.9246C30.0049 62.9194 30.6445 62.7115 31.1796 62.3291C31.6714 61.9023 32.0154 61.33 32.1622 60.6945C31.5051 60.6993 30.8655 60.9073 30.3305 61.29Z" fill="#BAC6D8"/>
<path d="M31.2716 62.8855C30.6417 62.6992 29.9698 62.7127 29.3479 62.9242C29.7025 63.4782 30.2217 63.9063 30.8323 64.1479C31.4634 64.3325 32.1357 64.319 32.759 64.1092C32.4038 63.5547 31.8833 63.1265 31.2716 62.8855Z" fill="#BAC6D8"/>
<path d="M32.9847 60.596C32.5565 61.0863 32.2945 61.7004 32.2366 62.3496C32.8854 62.2575 33.49 61.9663 33.9673 61.516C34.3953 61.0266 34.6573 60.4136 34.7154 59.7653C34.0669 59.8566 33.4624 60.1467 32.9847 60.596Z" fill="#BAC6D8"/>
<path d="M34.1336 62.0492C33.4848 61.9497 32.8213 62.0537 32.2336 62.3469C32.6597 62.8444 33.2291 63.1971 33.8635 63.3563C34.5132 63.4553 35.1776 63.3514 35.7664 63.0585C35.3399 62.5602 34.7692 62.2074 34.1336 62.0492Z" fill="#BAC6D8"/>
<path d="M35.3686 59.3126C35.025 59.8638 34.8649 60.5102 34.9115 61.1586C35.5374 60.9676 36.0884 60.5856 36.4878 60.0659C36.8328 59.5153 36.993 58.8684 36.945 58.2199C36.3194 58.4116 35.7686 58.7935 35.3686 59.3126Z" fill="#BAC6D8"/>
<path d="M36.7431 60.5667C36.0859 60.5713 35.4462 60.7792 34.9114 61.1621C35.3951 61.6151 36.0246 61.8792 36.6859 61.9065C37.3471 61.9339 37.9962 61.7226 38.5154 61.311C38.0154 60.8853 37.3963 60.6253 36.7431 60.5667Z" fill="#BAC6D8"/>
<path d="M37.5269 57.5533C37.325 58.1713 37.325 58.8378 37.5269 59.4558C38.0874 59.121 38.5288 58.6179 38.7886 58.0177C38.9895 57.3996 38.9895 56.7334 38.7886 56.1152C38.229 56.4511 37.788 56.9538 37.5269 57.5533Z" fill="#BAC6D8"/>
<path d="M39.1804 58.4403C38.5456 58.6017 37.9762 58.9564 37.5505 59.4556C38.1391 59.749 38.8037 59.853 39.4535 59.7533C40.0887 59.5946 40.6586 59.2407 41.0833 58.741C40.4948 58.4471 39.8304 58.3421 39.1804 58.4403Z" fill="#BAC6D8"/>
<path d="M39.305 55.3232C39.2631 55.9719 39.4273 56.6171 39.7741 57.1663C40.2635 56.731 40.5767 56.1309 40.6544 55.4795C40.7321 54.8281 40.5689 54.1708 40.1956 53.6321C39.7284 54.0875 39.4167 54.6795 39.305 55.3232Z" fill="#BAC6D8"/>
<path d="M41.1098 55.8058C40.5338 56.1083 40.0667 56.5841 39.7739 57.1665C40.4145 57.3159 41.0854 57.2629 41.6947 57.0146C42.2728 56.7115 42.7419 56.2347 43.0365 55.651C42.3938 55.502 41.7208 55.556 41.1098 55.8058Z" fill="#BAC6D8"/>
<path d="M40.5818 52.8309C40.6698 53.4763 40.9586 54.0775 41.4071 54.5488C41.7989 54.0237 41.985 53.3728 41.9303 52.7192C41.8756 52.0657 41.5838 51.455 41.1102 51.0027C40.7467 51.5412 40.5618 52.1809 40.5818 52.8309Z" fill="#BAC6D8"/>
<path d="M42.4461 52.95C41.9397 53.3598 41.5751 53.9193 41.4041 54.5489C42.0608 54.5681 42.7076 54.3841 43.2565 54.0219C43.7629 53.6121 44.1275 53.0526 44.2985 52.423C43.6418 52.4038 42.995 52.5878 42.4461 52.95Z" fill="#BAC6D8"/>
<path d="M41.3267 50.3178C41.5163 50.9428 41.8975 51.4919 42.4162 51.8869C42.6899 51.2979 42.769 50.6365 42.6418 49.9993C42.4523 49.3743 42.071 48.8253 41.5523 48.4302C41.2786 49.0193 41.1996 49.6806 41.3267 50.3178Z" fill="#BAC6D8"/>
<path d="M43.1881 50.1426C42.7534 50.6266 42.4832 51.2365 42.4163 51.8844C43.0662 51.8001 43.6746 51.5174 44.1589 51.0745C44.5931 50.5902 44.8633 49.9805 44.9308 49.3328C44.2804 49.4155 43.6715 49.6985 43.1881 50.1426Z" fill="#BAC6D8"/>
<path d="M41.3951 47.6117C41.7344 48.1712 42.2386 48.6113 42.8379 48.8711C42.9569 48.2316 42.8706 47.5707 42.5915 46.9834C42.2522 46.4239 41.7481 45.9838 41.1487 45.724C41.0297 46.3635 41.116 47.0244 41.3951 47.6117Z" fill="#BAC6D8"/>
<path d="M43.1585 46.9952C42.8554 47.5703 42.7431 48.2274 42.8379 48.8709C43.4433 48.6369 43.9617 48.2209 44.3223 47.68C44.6252 47.1048 44.7375 46.4477 44.6429 45.8042C44.0368 46.037 43.5181 46.4533 43.1585 46.9952Z" fill="#BAC6D8"/>
<path d="M40.8728 44.7832C41.3347 45.251 41.9302 45.5631 42.5769 45.6764C42.5419 45.0228 42.3007 44.3972 41.8881 43.89C41.4256 43.423 40.8304 43.111 40.1841 42.9968C40.219 43.6504 40.4602 44.276 40.8728 44.7832Z" fill="#BAC6D8"/>
<path d="M42.446 43.7676C42.2888 44.3982 42.3366 45.0627 42.5826 45.6642C43.1193 45.2938 43.5264 44.7637 43.7463 44.1487C43.9015 43.5179 43.8537 42.854 43.6098 42.2521C43.0739 42.6233 42.6671 43.1532 42.446 43.7676Z" fill="#BAC6D8"/>
<path d="M39.8811 42.5024C40.4381 42.852 41.0893 43.0205 41.7455 42.9848C41.5594 42.3588 41.1812 41.8077 40.6648 41.4097C40.1089 41.0601 39.4587 40.8917 38.8035 40.9274C38.9891 41.5527 39.3661 42.1037 39.8811 42.5024Z" fill="#BAC6D8"/>
<path d="M41.1755 41.1687C41.1687 41.8194 41.3683 42.4555 41.7455 42.985C42.2083 42.5217 42.4857 41.9043 42.5251 41.2497C42.5645 40.595 42.3631 39.9487 41.9592 39.4329C41.5217 39.914 41.2473 40.5216 41.1755 41.1687Z" fill="#BAC6D8"/>
<path d="M38.5332 40.4152C39.1381 40.6737 39.8077 40.7392 40.451 40.6028C40.1661 40.0141 39.7054 39.5291 39.1329 39.2153C38.5275 38.9586 37.8581 38.8942 37.2151 39.0307C37.4985 39.6197 37.9597 40.1041 38.5332 40.4152Z" fill="#BAC6D8"/>
<path d="M39.596 38.8969C39.6955 39.5415 39.9946 40.1383 40.451 40.603C40.8343 40.0708 41.0094 39.416 40.9432 38.7629C40.877 38.1098 40.574 37.5038 40.0918 37.0599C39.7376 37.6045 39.5641 38.2475 39.596 38.8969Z" fill="#BAC6D8"/>
<path d="M37.8149 37.4169C37.7711 37.4615 37.7245 37.5032 37.6754 37.5419L37.6279 37.5717C39.2096 38.8942 40.4844 40.5471 41.3632 42.4149C42.2421 44.2827 42.7039 46.3203 42.7162 48.3856C42.7162 56.4246 35.8199 62.9481 27.3443 62.9481C18.8686 62.9481 11.9693 56.4157 11.9693 48.3856C11.979 46.4124 12.4006 44.4631 13.207 42.6632C14.0133 40.8633 15.1864 39.2526 16.651 37.9349C16.565 37.91 16.4815 37.8771 16.4016 37.8367C14.9364 39.1746 13.764 40.803 12.9586 42.6188C12.1533 44.4346 11.7325 46.3983 11.7229 48.3856C11.7229 56.5437 18.7291 63.1833 27.3443 63.1833C35.9595 63.1833 42.9627 56.5437 42.9627 48.3856C42.9508 46.292 42.4841 44.2261 41.5951 42.3318C40.706 40.4375 39.4161 38.7603 37.8149 37.4169Z" fill="#BAC6D8"/>
<path d="M18.1796 38.4649C17.5307 38.5715 16.8648 38.4737 16.2737 38.185C16.6952 37.6829 17.2615 37.324 17.8946 37.1578C18.5435 37.053 19.2088 37.1507 19.8005 37.4377C19.3799 37.9409 18.8133 38.2999 18.1796 38.4649Z" fill="#BAC6D8"/>
<path d="M17.509 36.7383C17.2555 37.3402 16.8192 37.8466 16.2621 38.1853C16.0517 37.5712 16.0424 36.9056 16.2354 36.2858C16.4964 35.6796 16.9423 35.1719 17.509 34.8358C17.7107 35.4538 17.7107 36.1203 17.509 36.7383Z" fill="#BAC6D8"/>
<path d="M36.5709 38.4649C37.2197 38.5715 37.8856 38.4737 38.4768 38.185C38.0553 37.6829 37.489 37.324 36.8559 37.1578C36.207 37.053 35.5416 37.1507 34.95 37.4377C35.3706 37.9409 35.9372 38.2999 36.5709 38.4649Z" fill="#BAC6D8"/>
<path d="M37.2271 36.7383C37.4824 37.34 37.9196 37.8461 38.477 38.1853C38.6874 37.5712 38.6967 36.9056 38.5037 36.2858C38.2497 35.6834 37.8136 35.1762 37.2568 34.8358C37.0465 35.4508 37.0361 36.117 37.2271 36.7383Z" fill="#BAC6D8"/>
</svg>
